<svg xmlns="http://www.w3.org/2000/svg" width="40" height="40" viewBox="0 0 40 40" version="1.1"><path d="" stroke="none" fill="#385c9c" fill-rule="evenodd"/><path d="M 5.281 3.283 L 0.063 6.500 0.031 14.219 L 0 21.939 5.704 25.587 L 11.407 29.236 14.704 27.460 L 18 25.685 18 24.902 L 18 24.118 17.075 23.546 L 16.150 22.975 13.706 24.088 L 11.262 25.202 7.131 22.468 L 3 19.734 3 14.096 L 3 8.458 7.513 5.993 L 12.027 3.527 13.763 4.621 L 15.500 5.714 15.863 7.561 L 16.225 9.409 13.653 11.460 L 11.080 13.511 11.937 14.897 L 12.793 16.283 15.897 14.074 L 19 11.864 19 7.617 L 19 3.370 15.466 1.685 L 11.932 -0 11.216 0.033 L 10.500 0.065 5.281 3.283 M 23.752 1.841 L 21.004 3.500 21.002 20.250 L 21 37 22.500 37 L 24 37 24 21.019 L 24 5.038 26.527 4.404 L 29.054 3.770 33.027 6.399 L 37 9.028 37 14.410 L 37 19.792 32.057 22.963 L 27.115 26.135 27.657 27.549 L 28.200 28.963 30.350 27.824 L 32.500 26.685 36.250 24.330 L 40 21.975 39.980 14.237 L 39.961 6.500 34.401 3.250 L 28.840 0 27.670 0.091 L 26.500 0.183 23.752 1.841" stroke="none" fill="#345c9c" fill-rule="evenodd"/></svg>